<svg width="1983" height="1429" viewBox="0 0 1983 1429" fill="none" xmlns="http://www.w3.org/2000/svg">
<g clip-path="url(#clip0_236_571)">
<circle opacity="0.92" cx="165.242" cy="69.7849" r="32.4967" stroke="#2E2F5F" stroke-width="3.21"/>
<circle opacity="0.92" cx="345.432" cy="65.6624" r="23.7181" stroke="#2E2F5F" stroke-width="3.21"/>
<circle opacity="0.92" cx="432.979" cy="93.4625" r="22.0299" stroke="#2E2F5F" stroke-width="3.21"/>
<circle opacity="0.92" cx="91.5489" cy="429.786" r="22.0299" stroke="#2E2F5F" stroke-width="3.21"/>
<circle opacity="0.92" cx="670.662" cy="63.038" r="33.5097" stroke="#2E2F5F" stroke-width="3.21"/>
<circle opacity="0.92" cx="985.467" cy="30.9589" r="19.6664" stroke="#2E2F5F" stroke-width="3.21"/>
<circle opacity="0.92" cx="1012.97" cy="139.55" r="20.004" stroke="#2E2F5F" stroke-width="3.21"/>
<circle opacity="0.92" cx="1313.61" cy="70.4193" r="23.0428" stroke="#2E2F5F" stroke-width="3.21"/>
<circle opacity="0.92" cx="1482.5" cy="160.16" r="37.899" stroke="#2E2F5F" stroke-width="3.21"/>
<circle opacity="0.92" cx="1794.46" cy="110.108" r="37.899" stroke="#2E2F5F" stroke-width="3.21"/>
<circle opacity="0.92" cx="1886.66" cy="115.792" r="36.2108" stroke="#2E2F5F" stroke-width="3.21"/>
<circle opacity="0.92" cx="183.245" cy="253.812" r="31.4838" stroke="#2E2F5F" stroke-width="3.21"/>
<circle opacity="0.92" cx="353.803" cy="242.006" r="35.1979" stroke="#2E2F5F" stroke-width="3.21"/>
<circle opacity="0.92" cx="470.566" cy="201.628" r="22.3675" stroke="#2E2F5F" stroke-width="3.21"/>
<circle opacity="0.92" cx="43.9413" cy="171.363" r="22.3675" stroke="#2E2F5F" stroke-width="3.21"/>
<circle opacity="0.92" cx="686.077" cy="185.882" r="36.8861" stroke="#2E2F5F" stroke-width="3.21"/>
<circle opacity="0.92" cx="951.732" cy="293.278" r="25.7439" stroke="#2E2F5F" stroke-width="3.21"/>
<circle opacity="0.92" cx="1172.44" cy="174.044" r="20.004" stroke="#2E2F5F" stroke-width="3.21"/>
<circle opacity="0.92" cx="1361.74" cy="311.747" r="35.8732" stroke="#2E2F5F" stroke-width="3.21"/>
<circle opacity="0.92" cx="1434.98" cy="309.327" r="26.0816" stroke="#2E2F5F" stroke-width="3.21"/>
<circle opacity="0.92" cx="1781" cy="181.593" r="31.8215" stroke="#2E2F5F" stroke-width="3.21"/>
<circle opacity="0.92" cx="1891.4" cy="205.068" r="22.7052" stroke="#2E2F5F" stroke-width="3.21"/>
<circle opacity="0.92" cx="193.739" cy="450.896" r="28.7827" stroke="#2E2F5F" stroke-width="3.21"/>
<circle opacity="0.92" cx="417.143" cy="434.513" r="26.7568" stroke="#2E2F5F" stroke-width="3.21"/>
<circle opacity="0.92" cx="596.267" cy="432.049" r="25.0686" stroke="#2E2F5F" stroke-width="3.21"/>
<circle opacity="0.92" cx="738.941" cy="417.577" r="28.4451" stroke="#2E2F5F" stroke-width="3.21"/>
<circle opacity="0.92" cx="880.611" cy="320.626" r="28.1074" stroke="#2E2F5F" stroke-width="3.21"/>
<circle opacity="0.92" cx="1173.46" cy="432.271" r="28.7827" stroke="#2E2F5F" stroke-width="3.21"/>
<circle opacity="0.92" cx="1276.65" cy="424.884" r="31.4838" stroke="#2E2F5F" stroke-width="3.21"/>
<circle opacity="0.92" cx="1544.73" cy="358.494" r="21.3546" stroke="#2E2F5F" stroke-width="3.21"/>
<circle opacity="0.92" cx="1801.79" cy="439.412" r="35.5355" stroke="#2E2F5F" stroke-width="3.21"/>
<circle opacity="0.92" cx="1819.48" cy="391.525" r="21.017" stroke="#2E2F5F" stroke-width="3.21"/>
<circle opacity="0.92" cx="43.9384" cy="591.674" r="34.185" stroke="#2E2F5F" stroke-width="3.21"/>
<circle opacity="0.92" cx="270.915" cy="578.082" r="18.6535" stroke="#2E2F5F" stroke-width="3.21"/>
<circle opacity="0.92" cx="621.29" cy="495.836" r="34.185" stroke="#2E2F5F" stroke-width="3.21"/>
<circle opacity="0.92" cx="692.504" cy="547.651" r="22.3675" stroke="#2E2F5F" stroke-width="3.21"/>
<circle opacity="0.92" cx="877.519" cy="535.17" r="25.4063" stroke="#2E2F5F" stroke-width="3.21"/>
<circle opacity="0.92" cx="1196.42" cy="528.917" r="33.5097" stroke="#2E2F5F" stroke-width="3.21"/>
<circle opacity="0.92" cx="1286.05" cy="570.055" r="23.0428" stroke="#2E2F5F" stroke-width="3.21"/>
<circle opacity="0.92" cx="1620.73" cy="512.455" r="37.2237" stroke="#2E2F5F" stroke-width="3.21"/>
<circle opacity="0.92" cx="1749.4" cy="572.066" r="27.7698" stroke="#2E2F5F" stroke-width="3.21"/>
<circle opacity="0.92" cx="1909.8" cy="508.579" r="18.9911" stroke="#2E2F5F" stroke-width="3.21"/>
<circle opacity="0.92" cx="215.776" cy="628.827" r="26.7568" stroke="#2E2F5F" stroke-width="3.21"/>
<circle opacity="0.92" cx="330.068" cy="687.638" r="30.4709" stroke="#2E2F5F" stroke-width="3.21"/>
<circle opacity="0.92" cx="527.863" cy="708.51" r="36.2108" stroke="#2E2F5F" stroke-width="3.21"/>
<circle opacity="0.92" cx="816.26" cy="676.804" r="25.0686" stroke="#2E2F5F" stroke-width="3.21"/>
<circle opacity="0.92" cx="986.073" cy="714.5" r="23.7181" stroke="#2E2F5F" stroke-width="3.21"/>
<circle opacity="0.92" cx="1037.92" cy="606.287" r="24.3934" stroke="#2E2F5F" stroke-width="3.21"/>
<circle opacity="0.92" cx="1241.91" cy="712.112" r="25.0686" stroke="#2E2F5F" stroke-width="3.21"/>
<circle opacity="0.92" cx="1469.99" cy="601.847" r="20.3417" stroke="#2E2F5F" stroke-width="3.21"/>
<circle opacity="0.92" cx="1793.72" cy="628.368" r="22.0299" stroke="#2E2F5F" stroke-width="3.21"/>
<circle opacity="0.92" cx="1998.6" cy="669.512" r="19.3287" stroke="#2E2F5F" stroke-width="3.21"/>
<circle opacity="0.92" cx="79.0388" cy="886.273" r="27.7698" stroke="#2E2F5F" stroke-width="3.21"/>
<circle opacity="0.92" cx="313.869" cy="849.498" r="29.7956" stroke="#2E2F5F" stroke-width="3.21"/>
<circle opacity="0.92" cx="559.461" cy="856.85" r="24.731" stroke="#2E2F5F" stroke-width="3.21"/>
<circle opacity="0.92" cx="675.585" cy="756.472" r="21.3546" stroke="#2E2F5F" stroke-width="3.21"/>
<circle opacity="0.92" cx="924.384" cy="864.429" r="31.1462" stroke="#2E2F5F" stroke-width="3.21"/>
<circle opacity="0.92" cx="1043.49" cy="758.101" r="33.8473" stroke="#2E2F5F" stroke-width="3.21"/>
<circle opacity="0.92" cx="1223.13" cy="813.968" r="26.0816" stroke="#2E2F5F" stroke-width="3.21"/>
<circle opacity="0.92" cx="1528.4" cy="807.674" r="24.0557" stroke="#2E2F5F" stroke-width="3.21"/>
<circle opacity="0.92" cx="1803.1" cy="846.459" r="26.7568" stroke="#2E2F5F" stroke-width="3.21"/>
<circle opacity="0.92" cx="1878.37" cy="759.94" r="34.5226" stroke="#2E2F5F" stroke-width="3.21"/>
<circle opacity="0.92" cx="72.3372" cy="967.217" r="38.9119" stroke="#2E2F5F" stroke-width="3.21"/>
<circle opacity="0.92" cx="246.843" cy="948.89" r="29.1203" stroke="#2E2F5F" stroke-width="3.21"/>
<circle opacity="0.92" cx="577.34" cy="972.866" r="34.8602" stroke="#2E2F5F" stroke-width="3.21"/>
<circle opacity="0.92" cx="758.516" cy="992.231" r="32.4967" stroke="#2E2F5F" stroke-width="3.21"/>
<circle opacity="0.92" cx="854.095" cy="934.549" r="26.4192" stroke="#2E2F5F" stroke-width="3.21"/>
<circle opacity="0.92" cx="1161.83" cy="933.038" r="36.5484" stroke="#2E2F5F" stroke-width="3.21"/>
<circle opacity="0.92" cx="1409.92" cy="924.667" r="32.8344" stroke="#2E2F5F" stroke-width="3.21"/>
<circle opacity="0.92" cx="1619.38" cy="980.863" r="35.8732" stroke="#2E2F5F" stroke-width="3.21"/>
<circle opacity="0.92" cx="1617.66" cy="936.473" r="29.1203" stroke="#2E2F5F" stroke-width="3.21"/>
<circle opacity="0.92" cx="1918.69" cy="928.648" r="32.1591" stroke="#2E2F5F" stroke-width="3.21"/>
<circle opacity="0.92" cx="100.206" cy="1047.82" r="23.7181" stroke="#2E2F5F" stroke-width="3.21"/>
<circle opacity="0.92" cx="305.695" cy="1168.73" r="24.731" stroke="#2E2F5F" stroke-width="3.21"/>
<circle opacity="0.92" cx="596.01" cy="1137.77" r="26.7568" stroke="#2E2F5F" stroke-width="3.21"/>
<circle opacity="0.92" cx="656.763" cy="1044.1" r="30.4709" stroke="#2E2F5F" stroke-width="3.21"/>
<circle opacity="0.92" cx="981.005" cy="1122.73" r="28.7827" stroke="#2E2F5F" stroke-width="3.21"/>
<circle opacity="0.92" cx="1052.48" cy="1061.12" r="30.8085" stroke="#2E2F5F" stroke-width="3.21"/>
<circle opacity="0.92" cx="1288.13" cy="1137.3" r="24.731" stroke="#2E2F5F" stroke-width="3.21"/>
<circle opacity="0.92" cx="1534.1" cy="1172.19" r="30.1333" stroke="#2E2F5F" stroke-width="3.21"/>
<circle opacity="0.92" cx="1672.85" cy="1100.66" r="20.6793" stroke="#2E2F5F" stroke-width="3.21"/>
<circle opacity="0.92" cx="1877.54" cy="1101.64" r="27.0945" stroke="#2E2F5F" stroke-width="3.21"/>
<circle opacity="0.92" cx="130.835" cy="1263.48" r="21.3546" stroke="#2E2F5F" stroke-width="3.21"/>
<circle opacity="0.92" cx="310.573" cy="1232.15" r="20.6793" stroke="#2E2F5F" stroke-width="3.21"/>
<circle opacity="0.92" cx="596.631" cy="1305.19" r="38.2366" stroke="#2E2F5F" stroke-width="3.21"/>
<circle opacity="0.92" cx="768.914" cy="1253.21" r="27.7698" stroke="#2E2F5F" stroke-width="3.21"/>
<circle opacity="0.92" cx="917.604" cy="1175.69" r="22.0299" stroke="#2E2F5F" stroke-width="3.21"/>
<circle opacity="0.92" cx="1113.18" cy="1176.09" r="19.3287" stroke="#2E2F5F" stroke-width="3.21"/>
<circle opacity="0.92" cx="1390.71" cy="1288.74" r="23.7181" stroke="#2E2F5F" stroke-width="3.21"/>
<circle opacity="0.92" cx="1505.99" cy="1219.71" r="33.8473" stroke="#2E2F5F" stroke-width="3.21"/>
<circle opacity="0.92" cx="1754.54" cy="1206.75" r="19.3287" stroke="#2E2F5F" stroke-width="3.21"/>
<circle opacity="0.92" cx="2003.58" cy="1193.1" r="30.1333" stroke="#2E2F5F" stroke-width="3.21"/>
<circle opacity="0.92" cx="122.331" cy="1348.45" r="23.7181" stroke="#2E2F5F" stroke-width="3.21"/>
<circle opacity="0.92" cx="390.432" cy="1376.77" r="23.7181" stroke="#2E2F5F" stroke-width="3.21"/>
<circle opacity="0.92" cx="488.781" cy="1394.41" r="35.5355" stroke="#2E2F5F" stroke-width="3.21"/>
<circle opacity="0.92" cx="735.048" cy="1455.98" r="31.1462" stroke="#2E2F5F" stroke-width="3.21"/>
<circle opacity="0.92" cx="969.125" cy="1422.73" r="27.7698" stroke="#2E2F5F" stroke-width="3.21"/>
<circle opacity="0.92" cx="1187.53" cy="1405.61" r="35.8732" stroke="#2E2F5F" stroke-width="3.21"/>
<circle opacity="0.92" cx="1383.05" cy="1396.28" r="23.0428" stroke="#2E2F5F" stroke-width="3.21"/>
<circle opacity="0.92" cx="1493.05" cy="1354.17" r="32.1591" stroke="#2E2F5F" stroke-width="3.21"/>
<circle opacity="0.92" cx="1765.38" cy="1413.87" r="24.731" stroke="#2E2F5F" stroke-width="3.21"/>
<circle opacity="0.92" cx="1963.01" cy="1405.85" r="36.8861" stroke="#2E2F5F" stroke-width="3.21"/>
</g>
<defs>
<clipPath id="clip0_236_571">
<rect width="1982.71" height="1427.47" fill="white" transform="translate(0 0.762695)"/>
</clipPath>
</defs>
</svg>
