<svg width="1983" height="1428" viewBox="0 0 1983 1428" fill="none" xmlns="http://www.w3.org/2000/svg">
<g clip-path="url(#clip0_239_1048)">
<circle opacity="0.92" cx="238.753" cy="67.7533" r="18.1474" stroke="#7D7FBE" stroke-width="3.21163"/>
<circle opacity="0.92" cx="330.589" cy="185.753" r="18.1474" stroke="#7D7FBE" stroke-width="3.21163"/>
<circle opacity="0.92" cx="735.433" cy="50.7532" r="18.1474" stroke="#7D7FBE" stroke-width="3.21163"/>
<circle opacity="0.92" cx="844.269" cy="56.7532" r="18.1474" stroke="#7D7FBE" stroke-width="3.21163"/>
<circle opacity="0.92" cx="1102.11" cy="71.7533" r="18.1474" stroke="#7D7FBE" stroke-width="3.21163"/>
<circle opacity="0.92" cx="1296.95" cy="169.753" r="18.1474" stroke="#7D7FBE" stroke-width="3.21163"/>
<circle opacity="0.92" cx="1667.78" cy="158.753" r="18.1474" stroke="#7D7FBE" stroke-width="3.21163"/>
<circle opacity="0.92" cx="1796.63" cy="84.7533" r="18.1474" stroke="#7D7FBE" stroke-width="3.21163"/>
<circle opacity="0.92" cx="168.753" cy="301.187" r="18.1474" stroke="#7D7FBE" stroke-width="3.21163"/>
<circle opacity="0.92" cx="296.589" cy="260.187" r="18.1474" stroke="#7D7FBE" stroke-width="3.21163"/>
<circle opacity="0.92" cx="620.433" cy="366.187" r="18.1474" stroke="#7D7FBE" stroke-width="3.21163"/>
<circle opacity="0.92" cx="846.269" cy="233.187" r="18.1474" stroke="#7D7FBE" stroke-width="3.21163"/>
<circle opacity="0.92" cx="1254.11" cy="298.187" r="18.1474" stroke="#7D7FBE" stroke-width="3.21163"/>
<circle opacity="0.92" cx="1441.95" cy="338.187" r="18.1474" stroke="#7D7FBE" stroke-width="3.21163"/>
<circle opacity="0.92" cx="1712.78" cy="309.187" r="18.1474" stroke="#7D7FBE" stroke-width="3.21163"/>
<circle opacity="0.92" cx="1998.63" cy="346.187" r="18.1474" stroke="#7D7FBE" stroke-width="3.21163"/>
<circle opacity="0.92" cx="109.753" cy="508.622" r="18.1474" stroke="#7D7FBE" stroke-width="3.21163"/>
<circle opacity="0.92" cx="381.589" cy="504.622" r="18.1474" stroke="#7D7FBE" stroke-width="3.21163"/>
<circle opacity="0.92" cx="564.433" cy="445.622" r="18.1474" stroke="#7D7FBE" stroke-width="3.21163"/>
<circle opacity="0.92" cx="969.269" cy="395.622" r="18.1474" stroke="#7D7FBE" stroke-width="3.21163"/>
<circle opacity="0.92" cx="1073.11" cy="548.622" r="18.1474" stroke="#7D7FBE" stroke-width="3.21163"/>
<circle opacity="0.92" cx="1450.95" cy="457.622" r="18.1474" stroke="#7D7FBE" stroke-width="3.21163"/>
<circle opacity="0.92" cx="1588.78" cy="547.622" r="18.1474" stroke="#7D7FBE" stroke-width="3.21163"/>
<circle opacity="0.92" cx="1934.63" cy="462.622" r="18.1474" stroke="#7D7FBE" stroke-width="3.21163"/>
<circle opacity="0.92" cx="204.753" cy="644.056" r="18.1474" stroke="#7D7FBE" stroke-width="3.21163"/>
<circle opacity="0.92" cx="439.589" cy="592.056" r="18.1474" stroke="#7D7FBE" stroke-width="3.21163"/>
<circle opacity="0.92" cx="591.433" cy="723.056" r="18.1474" stroke="#7D7FBE" stroke-width="3.21163"/>
<circle opacity="0.92" cx="943.269" cy="726.056" r="18.1474" stroke="#7D7FBE" stroke-width="3.21163"/>
<circle opacity="0.92" cx="1086.11" cy="589.056" r="18.1474" stroke="#7D7FBE" stroke-width="3.21163"/>
<circle opacity="0.92" cx="1476.95" cy="658.056" r="18.1474" stroke="#7D7FBE" stroke-width="3.21163"/>
<circle opacity="0.92" cx="1675.78" cy="655.056" r="18.1474" stroke="#7D7FBE" stroke-width="3.21163"/>
<circle opacity="0.92" cx="1755.63" cy="707.056" r="18.1474" stroke="#7D7FBE" stroke-width="3.21163"/>
<circle opacity="0.92" cx="240.753" cy="746.491" r="18.1474" stroke="#7D7FBE" stroke-width="3.21163"/>
<circle opacity="0.92" cx="317.589" cy="842.491" r="18.1474" stroke="#7D7FBE" stroke-width="3.21163"/>
<circle opacity="0.92" cx="586.433" cy="763.491" r="18.1474" stroke="#7D7FBE" stroke-width="3.21163"/>
<circle opacity="0.92" cx="943.269" cy="881.491" r="18.1474" stroke="#7D7FBE" stroke-width="3.21163"/>
<circle opacity="0.92" cx="1240.11" cy="795.491" r="18.1474" stroke="#7D7FBE" stroke-width="3.21163"/>
<circle opacity="0.92" cx="1394.95" cy="791.491" r="18.1474" stroke="#7D7FBE" stroke-width="3.21163"/>
<circle opacity="0.92" cx="1517.78" cy="818.491" r="18.1474" stroke="#7D7FBE" stroke-width="3.21163"/>
<circle opacity="0.92" cx="1929.63" cy="791.491" r="18.1474" stroke="#7D7FBE" stroke-width="3.21163"/>
<circle opacity="0.92" cx="263.753" cy="970.925" r="18.1474" stroke="#7D7FBE" stroke-width="3.21163"/>
<circle opacity="0.92" cx="499.589" cy="1006.92" r="18.1474" stroke="#7D7FBE" stroke-width="3.21163"/>
<circle opacity="0.92" cx="659.433" cy="1055.92" r="18.1474" stroke="#7D7FBE" stroke-width="3.21163"/>
<circle opacity="0.92" cx="973.269" cy="959.925" r="18.1474" stroke="#7D7FBE" stroke-width="3.21163"/>
<circle opacity="0.92" cx="1246.11" cy="971.925" r="18.1474" stroke="#7D7FBE" stroke-width="3.21163"/>
<circle opacity="0.92" cx="1388.95" cy="1088.92" r="18.1474" stroke="#7D7FBE" stroke-width="3.21163"/>
<circle opacity="0.92" cx="1535.78" cy="1052.92" r="18.1474" stroke="#7D7FBE" stroke-width="3.21163"/>
<circle opacity="0.92" cx="1863.63" cy="945.925" r="18.1474" stroke="#7D7FBE" stroke-width="3.21163"/>
<circle opacity="0.92" cx="257.753" cy="1194.36" r="18.1474" stroke="#7D7FBE" stroke-width="3.21163"/>
<circle opacity="0.92" cx="319.589" cy="1127.36" r="18.1474" stroke="#7D7FBE" stroke-width="3.21163"/>
<circle opacity="0.92" cx="652.433" cy="1161.36" r="18.1474" stroke="#7D7FBE" stroke-width="3.21163"/>
<circle opacity="0.92" cx="902.269" cy="1090.36" r="18.1474" stroke="#7D7FBE" stroke-width="3.21163"/>
<circle opacity="0.92" cx="1033.11" cy="1164.36" r="18.1474" stroke="#7D7FBE" stroke-width="3.21163"/>
<circle opacity="0.92" cx="1437.95" cy="1247.36" r="18.1474" stroke="#7D7FBE" stroke-width="3.21163"/>
<circle opacity="0.92" cx="1591.78" cy="1111.36" r="18.1474" stroke="#7D7FBE" stroke-width="3.21163"/>
<circle opacity="0.92" cx="1854.63" cy="1249.36" r="18.1474" stroke="#7D7FBE" stroke-width="3.21163"/>
<circle opacity="0.92" cx="194.753" cy="1415.79" r="18.1474" stroke="#7D7FBE" stroke-width="3.21163"/>
<circle opacity="0.92" cx="381.589" cy="1363.79" r="18.1474" stroke="#7D7FBE" stroke-width="3.21163"/>
<circle opacity="0.92" cx="678.433" cy="1368.79" r="18.1474" stroke="#7D7FBE" stroke-width="3.21163"/>
<circle opacity="0.92" cx="876.269" cy="1324.79" r="18.1474" stroke="#7D7FBE" stroke-width="3.21163"/>
<circle opacity="0.92" cx="1133.11" cy="1365.79" r="18.1474" stroke="#7D7FBE" stroke-width="3.21163"/>
<circle opacity="0.92" cx="1420.95" cy="1354.79" r="18.1474" stroke="#7D7FBE" stroke-width="3.21163"/>
<circle opacity="0.92" cx="1712.78" cy="1441.79" r="18.1474" stroke="#7D7FBE" stroke-width="3.21163"/>
<circle opacity="0.92" cx="2000.63" cy="1326.79" r="18.1474" stroke="#7D7FBE" stroke-width="3.21163"/>
</g>
<defs>
<clipPath id="clip0_239_1048">
<rect width="1982.71" height="1427.47" fill="white"/>
</clipPath>
</defs>
</svg>
